<svg width="120" height="24" viewBox="0 0 120 24" fill="none" xmlns="http://www.w3.org/2000/svg">
<path fill-rule="evenodd" clip-rule="evenodd" d="M8.3191 5.34814C9.9479 5.34814 11.2735 6.66396 11.2735 8.29354C11.2735 9.92312 9.9479 11.2389 8.3191 11.2389C6.6903 11.2389 5.3647 9.92312 5.3647 8.29354C5.3647 6.66396 6.6903 5.34814 8.3191 5.34814ZM9.7735 8.29354C9.7735 7.49817 9.1252 6.84814 8.3191 6.84814C7.513 6.84814 6.8647 7.49817 6.8647 8.29354C6.8647 9.08891 7.513 9.73891 8.3191 9.73891C9.1252 9.73891 9.7735 9.08891 9.7735 8.29354Z" fill="#1C274C"/>
<path fill-rule="evenodd" clip-rule="evenodd" d="M14.22 20.6283C13.887 20.164 13.7798 19.6929 13.7878 19.2733C13.3956 19.3887 13.0076 19.4033 12.6359 19.3328C11.8675 19.187 11.2989 18.7012 10.9973 18.3007L10.992 18.2937L10.9869 18.2866C10.4617 17.5543 10.4628 16.8043 10.5914 16.2664C10.6544 16.0028 10.7479 15.7861 10.8255 15.6346C10.8647 15.5581 10.901 15.496 10.9293 15.4505C10.9368 15.4385 10.9437 15.4275 10.9501 15.4177C11.0388 15.2521 11.1389 15.1219 11.2231 15.0237L11.2141 15.0147L10.7499 14.5524C10.3683 14.7349 9.9543 14.8499 9.5917 14.9249C9.006 15.0462 8.4329 15.0869 8.0693 15.0869C4.168 15.0869 0.999996 11.9363 0.999996 8.04344C0.999996 4.15056 4.168 1 8.0693 1C11.9706 1 15.1386 4.15056 15.1386 8.04344C15.1386 8.9605 14.9298 9.74588 14.7241 10.299C14.6717 10.4398 14.6192 10.5666 14.5696 10.6779L21.8249 17.9035C22.0813 18.1589 22.3821 18.603 22.473 19.1592C22.5716 19.7624 22.4097 20.4329 21.8249 21.0154L20.9431 21.8935C20.9295 21.9071 20.9154 21.9201 20.9008 21.9325C20.6461 22.1499 20.2184 22.4013 19.7043 22.4773C19.1529 22.5588 18.5147 22.4318 17.9742 21.8935L17.4077 21.3293C16.8748 21.6349 16.3115 21.7045 15.7906 21.6048C15.115 21.4754 14.5531 21.071 14.2304 20.6424L14.2251 20.6354L14.22 20.6283ZM13.6386 8.04344C13.6386 4.98477 11.148 2.5 8.0693 2.5C4.9906 2.5 2.5 4.98477 2.5 8.04344C2.5 11.1021 4.9906 13.5869 8.0693 13.5869C8.3425 13.5869 8.8128 13.5544 9.2877 13.4561C9.7846 13.3532 10.1748 13.2004 10.3826 13.0279C10.6801 12.781 11.1168 12.8008 11.3908 13.0737L12.2726 13.9519C12.4743 14.1528 12.6682 14.3805 12.7706 14.6433C12.9001 14.9761 12.8588 15.2963 12.7106 15.5621C12.6227 15.7197 12.4811 15.8702 12.4222 15.933L12.4024 15.9542C12.3327 16.0311 12.2945 16.0814 12.2666 16.137L12.2402 16.1897L12.21 16.2317L12.2032 16.2424C12.1942 16.257 12.1788 16.283 12.1605 16.3185C12.1233 16.3912 12.0791 16.4945 12.0503 16.6152C11.9956 16.8437 11.9962 17.1156 12.2006 17.4051C12.3413 17.5884 12.6076 17.8006 12.9155 17.8591C13.1731 17.9079 13.5929 17.8761 14.1533 17.3181C14.4459 17.0266 14.9191 17.0266 15.2117 17.3181L15.5057 17.6108C15.7825 17.8865 15.8011 18.3282 15.5495 18.6261C15.5481 18.6278 15.5442 18.6326 15.5384 18.6403C15.5264 18.6562 15.5066 18.6836 15.4832 18.7204C15.4352 18.7961 15.3787 18.9008 15.3386 19.0206C15.2631 19.2463 15.2512 19.4874 15.4336 19.7466C15.5536 19.9019 15.797 20.0787 16.0727 20.1315C16.3071 20.1764 16.6072 20.1431 16.9455 19.8062C17.2381 19.5147 17.7113 19.5147 18.004 19.8062L19.0327 20.8307C19.1976 20.9949 19.3432 21.0143 19.4849 20.9934C19.6527 20.9686 19.8167 20.8793 19.9092 20.8062L20.7664 19.9525C21.0046 19.7153 21.0141 19.5321 20.9927 19.4011C20.9636 19.2231 20.8529 19.0525 20.7664 18.9663L13.1221 11.3533C12.8753 11.1075 12.8315 10.7235 13.0167 10.4284L13.0189 10.4248C13.0216 10.4203 13.0268 10.4115 13.0342 10.3987C13.0488 10.3731 13.0719 10.3314 13.1006 10.2751C13.1582 10.1623 13.2378 9.9923 13.3182 9.7762C13.4799 9.34135 13.6386 8.73632 13.6386 8.04344ZM15.5495 18.6261C15.5481 18.6277 15.5467 18.6293 15.5453 18.631L15.5465 18.6296L15.5495 18.6261Z" fill="#1C274C"/>
<path d="M32.26 18.5V5.54H37.615C37.741 5.54 37.903 5.546 38.101 5.558C38.299 5.564 38.482 5.582 38.65 5.612C39.4 5.726 40.018 5.975 40.504 6.359C40.996 6.743 41.359 7.229 41.593 7.817C41.833 8.399 41.953 9.047 41.953 9.761C41.953 10.817 41.686 11.726 41.152 12.488C40.618 13.244 39.799 13.712 38.695 13.892L37.768 13.973H34.429V18.5H32.26ZM39.703 18.5L37.147 13.226L39.352 12.74L42.16 18.5H39.703ZM34.429 11.948H37.525C37.645 11.948 37.78 11.942 37.93 11.93C38.08 11.918 38.218 11.894 38.344 11.858C38.704 11.768 38.986 11.609 39.19 11.381C39.4 11.153 39.547 10.895 39.631 10.607C39.721 10.319 39.766 10.037 39.766 9.761C39.766 9.485 39.721 9.203 39.631 8.915C39.547 8.621 39.4 8.36 39.19 8.132C38.986 7.904 38.704 7.745 38.344 7.655C38.218 7.619 38.08 7.598 37.93 7.592C37.78 7.58 37.645 7.574 37.525 7.574H34.429V11.948ZM48.5618 18.77C47.5778 18.77 46.7138 18.557 45.9698 18.131C45.2258 17.705 44.6438 17.114 44.2238 16.358C43.8098 15.602 43.6028 14.732 43.6028 13.748C43.6028 12.686 43.8068 11.765 44.2148 10.985C44.6228 10.199 45.1898 9.59 45.9158 9.158C46.6418 8.726 47.4818 8.51 48.4358 8.51C49.4438 8.51 50.2988 8.747 51.0008 9.221C51.7088 9.689 52.2338 10.352 52.5758 11.21C52.9178 12.068 53.0468 13.079 52.9628 14.243H50.8118V13.451C50.8058 12.395 50.6198 11.624 50.2538 11.138C49.8878 10.652 49.3118 10.409 48.5258 10.409C47.6378 10.409 46.9778 10.685 46.5458 11.237C46.1138 11.783 45.8978 12.584 45.8978 13.64C45.8978 14.624 46.1138 15.386 46.5458 15.926C46.9778 16.466 47.6078 16.736 48.4358 16.736C48.9698 16.736 49.4288 16.619 49.8128 16.385C50.2028 16.145 50.5028 15.8 50.7128 15.35L52.8548 15.998C52.4828 16.874 51.9068 17.555 51.1268 18.041C50.3528 18.527 49.4978 18.77 48.5618 18.77ZM45.2138 14.243V12.605H51.9008V14.243H45.2138ZM61.4303 18.5V13.82C61.4303 13.514 61.4093 13.175 61.3673 12.803C61.3253 12.431 61.2263 12.074 61.0703 11.732C60.9203 11.384 60.6923 11.099 60.3863 10.877C60.0863 10.655 59.6783 10.544 59.1623 10.544C58.8863 10.544 58.6133 10.589 58.3433 10.679C58.0733 10.769 57.8273 10.925 57.6053 11.147C57.3893 11.363 57.2153 11.663 57.0833 12.047C56.9513 12.425 56.8853 12.911 56.8853 13.505L55.5983 12.956C55.5983 12.128 55.7573 11.378 56.0753 10.706C56.3993 10.034 56.8733 9.5 57.4973 9.104C58.1213 8.702 58.8893 8.501 59.8013 8.501C60.5213 8.501 61.1153 8.621 61.5833 8.861C62.0513 9.101 62.4233 9.407 62.6993 9.779C62.9753 10.151 63.1793 10.547 63.3113 10.967C63.4433 11.387 63.5273 11.786 63.5633 12.164C63.6053 12.536 63.6263 12.839 63.6263 13.073V18.5H61.4303ZM54.6893 18.5V8.78H56.6243V11.795H56.8853V18.5H54.6893ZM71.6718 18.5C71.0298 18.62 70.3998 18.671 69.7818 18.653C69.1698 18.641 68.6208 18.53 68.1348 18.32C67.6488 18.104 67.2798 17.765 67.0278 17.303C66.8058 16.883 66.6888 16.454 66.6768 16.016C66.6648 15.578 66.6588 15.083 66.6588 14.531V6.08H68.8188V14.405C68.8188 14.795 68.8218 15.137 68.8278 15.431C68.8398 15.725 68.9028 15.965 69.0168 16.151C69.2328 16.511 69.5778 16.712 70.0518 16.754C70.5258 16.796 71.0658 16.772 71.6718 16.682V18.5ZM64.8948 10.481V8.78H71.6718V10.481H64.8948ZM73.762 18.5V5.54H79.117C79.243 5.54 79.405 5.546 79.603 5.558C79.801 5.564 79.984 5.582 80.152 5.612C80.902 5.726 81.52 5.975 82.006 6.359C82.498 6.743 82.861 7.229 83.095 7.817C83.335 8.399 83.455 9.047 83.455 9.761C83.455 10.469 83.335 11.117 83.095 11.705C82.855 12.287 82.489 12.77 81.997 13.154C81.511 13.538 80.896 13.787 80.152 13.901C79.984 13.925 79.798 13.943 79.594 13.955C79.396 13.967 79.237 13.973 79.117 13.973H75.931V18.5H73.762ZM75.931 11.948H79.027C79.147 11.948 79.282 11.942 79.432 11.93C79.582 11.918 79.72 11.894 79.846 11.858C80.206 11.768 80.488 11.609 80.692 11.381C80.902 11.153 81.049 10.895 81.133 10.607C81.223 10.319 81.268 10.037 81.268 9.761C81.268 9.485 81.223 9.203 81.133 8.915C81.049 8.621 80.902 8.36 80.692 8.132C80.488 7.904 80.206 7.745 79.846 7.655C79.72 7.619 79.582 7.598 79.432 7.592C79.282 7.58 79.147 7.574 79.027 7.574H75.931V11.948ZM89.3928 18.77C88.4208 18.77 87.5718 18.551 86.8458 18.113C86.1198 17.675 85.5558 17.072 85.1538 16.304C84.7578 15.53 84.5598 14.642 84.5598 13.64C84.5598 12.62 84.7638 11.726 85.1718 10.958C85.5798 10.19 86.1468 9.59 86.8728 9.158C87.5988 8.726 88.4388 8.51 89.3928 8.51C90.3708 8.51 91.2228 8.729 91.9488 9.167C92.6748 9.605 93.2388 10.211 93.6408 10.985C94.0428 11.753 94.2438 12.638 94.2438 13.64C94.2438 14.648 94.0398 15.539 93.6318 16.313C93.2298 17.081 92.6658 17.684 91.9398 18.122C91.2138 18.554 90.3648 18.77 89.3928 18.77ZM89.3928 16.736C90.2568 16.736 90.8988 16.448 91.3188 15.872C91.7388 15.296 91.9488 14.552 91.9488 13.64C91.9488 12.698 91.7358 11.948 91.3098 11.39C90.8838 10.826 90.2448 10.544 89.3928 10.544C88.8108 10.544 88.3308 10.676 87.9528 10.94C87.5808 11.198 87.3048 11.561 87.1248 12.029C86.9448 12.491 86.8548 13.028 86.8548 13.64C86.8548 14.582 87.0678 15.335 87.4938 15.899C87.9258 16.457 88.5588 16.736 89.3928 16.736ZM96.4068 7.304V5.315H98.5758V7.304H96.4068ZM96.4068 18.5V8.78H98.5758V18.5H96.4068ZM107.995 18.5V13.82C107.995 13.514 107.974 13.175 107.932 12.803C107.89 12.431 107.791 12.074 107.635 11.732C107.485 11.384 107.257 11.099 106.951 10.877C106.651 10.655 106.243 10.544 105.727 10.544C105.451 10.544 105.178 10.589 104.908 10.679C104.638 10.769 104.392 10.925 104.17 11.147C103.954 11.363 103.78 11.663 103.648 12.047C103.516 12.425 103.45 12.911 103.45 13.505L102.163 12.956C102.163 12.128 102.322 11.378 102.64 10.706C102.964 10.034 103.438 9.5 104.062 9.104C104.686 8.702 105.454 8.501 106.366 8.501C107.086 8.501 107.68 8.621 108.148 8.861C108.616 9.101 108.988 9.407 109.264 9.779C109.54 10.151 109.744 10.547 109.876 10.967C110.008 11.387 110.092 11.786 110.128 12.164C110.17 12.536 110.191 12.839 110.191 13.073V18.5H107.995ZM101.254 18.5V8.78H103.189V11.795H103.45V18.5H101.254ZM118.236 18.5C117.594 18.62 116.964 18.671 116.346 18.653C115.734 18.641 115.185 18.53 114.699 18.32C114.213 18.104 113.844 17.765 113.592 17.303C113.37 16.883 113.253 16.454 113.241 16.016C113.229 15.578 113.223 15.083 113.223 14.531V6.08H115.383V14.405C115.383 14.795 115.386 15.137 115.392 15.431C115.404 15.725 115.467 15.965 115.581 16.151C115.797 16.511 116.142 16.712 116.616 16.754C117.09 16.796 117.63 16.772 118.236 16.682V18.5ZM111.459 10.481V8.78H118.236V10.481H111.459Z" fill="#0D0F1C"/>
</svg>
