<svg width="24" height="24" viewBox="0 0 24 24" fill="none" xmlns="http://www.w3.org/2000/svg">
<path d="M20.8407 5.20312C15.4551 15.4175 8.5431 15.4079 3.1575 5.20312" stroke="#47579E" stroke-width="1.5" stroke-linecap="round" stroke-linejoin="round"/>
<path d="M2.39062 7.09439V16.6944C2.39062 17.7128 2.7952 18.6895 3.51533 19.4096C4.23548 20.1297 5.2122 20.5344 6.23062 20.5344H17.7506C18.7691 20.5344 19.7458 20.1297 20.4659 19.4096C21.1861 18.6895 21.5906 17.7128 21.5906 16.6944V7.09439C21.5906 6.07597 21.1861 5.09919 20.4659 4.37904C19.7458 3.65891 18.7691 3.25439 17.7506 3.25439H6.23062C5.2122 3.25439 4.23548 3.65891 3.51533 4.37904C2.7952 5.09919 2.39062 6.07597 2.39062 7.09439Z" stroke="#47579E" stroke-width="1.5" stroke-linecap="round" stroke-linejoin="round"/>
</svg>
