<svg width="40" height="40" viewBox="0 0 40 40" fill="none" xmlns="http://www.w3.org/2000/svg">
<rect width="40" height="40" rx="20" fill="#E6E8F5"/>
<path d="M16 19H16.01M20 19H20.01M24 19H24.01M29 28L25.6757 26.3378C25.4237 26.2118 25.2977 26.1488 25.1656 26.1044C25.0484 26.065 24.9277 26.0365 24.8052 26.0193C24.6672 26 24.5263 26 24.2446 26H14.2C13.0799 26 12.5198 26 12.092 25.782C11.7157 25.5903 11.4097 25.2843 11.218 24.908C11 24.4802 11 23.9201 11 22.8V15.2C11 14.0799 11 13.5198 11.218 13.092C11.4097 12.7157 11.7157 12.4097 12.092 12.218C12.5198 12 13.0799 12 14.2 12H25.8C26.9201 12 27.4802 12 27.908 12.218C28.2843 12.4097 28.5903 12.7157 28.782 13.092C29 13.5198 29 14.0799 29 15.2V28Z" stroke="#47579E" stroke-width="2" stroke-linecap="round" stroke-linejoin="round"/>
</svg>
